<?xml version="1.0" standalone="no"?>
<!DOCTYPE svg PUBLIC "-//W3C//DTD SVG 20010904//EN"
 "http://www.w3.org/TR/2001/REC-SVG-20010904/DTD/svg10.dtd">
<svg version="1.0" xmlns="http://www.w3.org/2000/svg"
 width="700.000000pt" height="700.000000pt" viewBox="0 0 700.000000 700.000000"
 preserveAspectRatio="xMidYMid meet">
<metadata>
Created by potrace 1.14, written by Peter Selinger 2001-2017
</metadata>
<g transform="translate(0.000000,700.000000) scale(0.100000,-0.100000)"
fill="#000000" stroke="none">
<path d="M3220 6994 c-536 -53 -993 -192 -1423 -433 -898 -502 -1533 -1371
-1731 -2366 -54 -272 -60 -349 -61 -685 0 -250 4 -343 18 -450 107 -791 446
-1480 1002 -2035 554 -555 1246 -895 2035 -1002 126 -17 244 -18 1805 -18
l1670 0 67 23 c169 59 311 201 370 370 l23 67 0 3035 0 3035 -23 67 c-58 166
-196 306 -365 370 l-62 23 -1645 1 c-905 1 -1661 -1 -1680 -2z m1254 -1143
c120 -49 219 -91 222 -93 2 -3 -36 -103 -86 -223 -49 -120 -90 -223 -90 -230
0 -7 26 -32 58 -56 31 -23 93 -79 137 -124 215 -217 345 -514 384 -877 18
-158 14 -1295 -4 -1449 -32 -278 -126 -531 -266 -720 -67 -91 -228 -243 -324
-307 -233 -156 -503 -239 -848 -264 -183 -13 -405 -1 -572 32 -55 11 -103 20
-106 20 -4 0 -53 -112 -109 -249 l-102 -250 -47 19 c-142 56 -397 163 -403
168 -3 4 40 120 97 257 95 229 102 251 87 263 -177 133 -270 226 -357 357
-150 226 -223 465 -246 808 -17 260 -7 1250 15 1387 58 357 170 593 386 811
241 243 538 377 935 424 256 30 602 10 795 -45 29 -8 32 -7 45 23 7 18 48 116
90 220 43 103 81 187 85 187 4 0 105 -40 224 -89z"/>
<path d="M3359 4910 c-332 -42 -580 -236 -679 -533 -50 -148 -52 -182 -48
-887 l3 -655 28 -90 c30 -96 60 -161 109 -239 31 -47 32 -48 43 -25 7 13 232
557 500 1208 366 889 484 1186 474 1192 -43 26 -311 45 -430 29z"/>
<path d="M3725 3387 c-269 -655 -489 -1194 -488 -1197 10 -26 327 -41 455 -21
379 61 629 326 678 721 8 66 10 281 8 705 -3 599 -4 612 -26 702 -23 89 -107
274 -127 280 -5 1 -230 -534 -500 -1190z"/>
</g>
</svg>
